<svg width="24" height="24" viewBox="0 0 24 24" fill="none" xmlns="http://www.w3.org/2000/svg">
<path fill-rule="evenodd" clip-rule="evenodd" d="M13.6715 2.18633C13.9199 1.93789 14.3228 1.93789 14.5713 2.18633L18.8133 6.42764C19.0618 6.67609 19.0618 7.07884 18.8133 7.3273L14.5713 11.5686C14.3228 11.817 13.9199 11.817 13.6715 11.5686C13.423 11.3201 13.423 10.9174 13.6715 10.6689L17.4635 6.87747L13.6715 3.08605C13.423 2.8376 13.423 2.43478 13.6715 2.18633Z" fill="#BCBCC5"/>
<g opacity="0.5">
<path d="M9.87992 6.24228C9.07106 6.24228 7.87203 6.47962 6.85693 7.21039C5.80933 7.96458 5.00166 9.21592 5.00166 11.1197C5.00166 11.4711 5.28655 11.7559 5.63795 11.7559C5.98936 11.7559 6.27425 11.4711 6.27425 11.1197C6.27425 9.63055 6.8806 8.76126 7.60046 8.24306C8.35281 7.70145 9.27476 7.51466 9.87992 7.51466L16.8277 7.51466L17.464 6.87847L16.8277 6.24228L9.87992 6.24228Z" fill="#BCBCC5"/>
<path d="M18.9779 6.71077C19.0135 6.84183 19.0066 6.98196 18.957 7.10936C18.9849 7.03786 19.0002 6.9599 19.0002 6.87847C19.0002 6.82045 18.9924 6.76421 18.9779 6.71077Z" fill="#BCBCC5"/>
</g>
<path fill-rule="evenodd" clip-rule="evenodd" d="M10.3282 21.388C10.0797 21.6364 9.67681 21.6364 9.42833 21.388L5.18636 17.1467C4.93788 16.8982 4.93788 16.4955 5.18636 16.247L9.42833 12.0057C9.67681 11.7573 10.0797 11.7573 10.3282 12.0057C10.5767 12.2542 10.5767 12.6569 10.3282 12.9054L6.53615 16.6968L10.3282 20.4883C10.5767 20.7367 10.5767 21.1395 10.3282 21.388Z" fill="#BCBCC5"/>
<g opacity="0.5">
<path d="M14.1203 17.3306C14.9292 17.3306 16.1282 17.0932 17.1433 16.3624C18.1909 15.6083 18.9986 14.3569 18.9986 12.4531C18.9986 12.1017 18.7137 11.8169 18.3623 11.8169C18.0109 11.8169 17.726 12.1017 17.726 12.4531C17.726 13.9423 17.1196 14.8116 16.3998 15.3298C15.6474 15.8714 14.7255 16.0582 14.1203 16.0582L7.17255 16.0582L6.53625 16.6944L7.17255 17.3306L14.1203 17.3306Z" fill="#BCBCC5"/>
<path d="M5.02239 16.8621C4.98672 16.731 4.99367 16.5909 5.04323 16.4635C5.01531 16.535 5 16.6129 5 16.6944C5 16.7524 5.0078 16.8086 5.02239 16.8621Z" fill="#BCBCC5"/>
</g>
</svg>
