<svg width="24" height="24" viewBox="0 0 24 24" fill="none" xmlns="http://www.w3.org/2000/svg">
<path d="M12.375 20.25H4.47188C4.37673 20.2513 4.28229 20.2334 4.19414 20.1976C4.10599 20.1618 4.02591 20.1087 3.95863 20.0414C3.89134 19.9741 3.83821 19.894 3.80238 19.8059C3.76655 19.7177 3.74874 19.6233 3.75 19.5281V11.625C3.75 9.33751 4.6587 7.14371 6.27621 5.5262C7.89371 3.9087 10.0875 3 12.375 3C13.5077 3 14.6292 3.22309 15.6756 3.65654C16.7221 4.08999 17.6729 4.7253 18.4738 5.5262C19.2747 6.32711 19.91 7.27792 20.3435 8.32436C20.7769 9.37079 21 10.4923 21 11.625C21 12.7577 20.7769 13.8792 20.3435 14.9256C19.91 15.9721 19.2747 16.9229 18.4738 17.7238C17.6729 18.5247 16.7221 19.16 15.6756 19.5935C14.6292 20.0269 13.5077 20.25 12.375 20.25Z" stroke="#BEC4CB" stroke-linecap="round" stroke-linejoin="round"/>
<path d="M9.375 10.5H15" stroke="#BEC4CB" stroke-linecap="round" stroke-linejoin="round"/>
<path d="M9.375 13.5H15" stroke="#BEC4CB" stroke-linecap="round" stroke-linejoin="round"/>
</svg>
