<svg width="20" height="20" viewBox="0 0 20 20" fill="none" xmlns="http://www.w3.org/2000/svg">
<g clip-path="url(#clip0_138_1767)">
<path d="M1.81803 18.1819L1.81801 18.1819C1.19417 17.5581 0.854205 16.7259 0.6786 15.4197C0.501062 14.0992 0.5 12.3711 0.5 10C0.5 7.62884 0.501062 5.90077 0.6786 4.58026C0.854204 3.27414 1.19417 2.44187 1.81802 1.81802L1.81802 1.81802C2.44187 1.19417 3.27414 0.854204 4.58026 0.6786C5.90077 0.501062 7.62884 0.5 10 0.5C12.3711 0.5 14.0992 0.501062 15.4197 0.6786C16.7259 0.854205 17.5581 1.19417 18.1819 1.81801L18.1819 1.81803C18.8058 2.44187 19.1458 3.27414 19.3214 4.58026C19.4989 5.90077 19.5 7.62884 19.5 10C19.5 12.3711 19.4989 14.0992 19.3214 15.4197C19.1458 16.7259 18.8058 17.5581 18.182 18.1819L18.1819 18.182C17.5581 18.8058 16.7259 19.1458 15.4197 19.3214C14.0992 19.4989 12.3711 19.5 10 19.5C7.62884 19.5 5.90077 19.4989 4.58026 19.3214C3.27414 19.1458 2.44187 18.8058 1.81803 18.1819Z" fill="#2D2D35" stroke="#525260"/>
<path d="M14.0303 6.96967C14.3232 7.26256 14.3232 7.73744 14.0303 8.0303L9.0303 13.0303C8.7374 13.3232 8.2626 13.3232 7.96967 13.0303L5.96967 11.0303C5.67678 10.7374 5.67678 10.2626 5.96967 9.9697C6.26256 9.6768 6.73744 9.6768 7.03033 9.9697L8.5 11.4393L12.9697 6.96967C13.2626 6.67678 13.7374 6.67678 14.0303 6.96967Z" fill="#F1F1F3"/>
</g>
<defs>
<clipPath id="clip0_138_1767">
<rect width="20" height="20" fill="white"/>
</clipPath>
</defs>
</svg>
