<svg width="24" height="24" viewBox="0 0 24 24" fill="none" xmlns="http://www.w3.org/2000/svg">
<path d="M9 14.4375C9.51777 14.4375 9.9375 14.0178 9.9375 13.5C9.9375 12.9822 9.51777 12.5625 9 12.5625C8.48223 12.5625 8.0625 12.9822 8.0625 13.5C8.0625 14.0178 8.48223 14.4375 9 14.4375Z" fill="#BEC4CB"/>
<path d="M15 14.4375C15.5178 14.4375 15.9375 14.0178 15.9375 13.5C15.9375 12.9822 15.5178 12.5625 15 12.5625C14.4822 12.5625 14.0625 12.9822 14.0625 13.5C14.0625 14.0178 14.4822 14.4375 15 14.4375Z" fill="#BEC4CB"/>
<path d="M6.975 7.50001C8.60086 6.99044 10.2962 6.73741 12 6.75001C13.7038 6.73741 15.3991 6.99044 17.025 7.50001" stroke="#BEC4CB" stroke-linecap="round" stroke-linejoin="round"/>
<path d="M17.025 16.5C15.3991 17.0096 13.7038 17.2626 12 17.25C10.2962 17.2626 8.60086 17.0096 6.975 16.5" stroke="#BEC4CB" stroke-linecap="round" stroke-linejoin="round"/>
<path d="M14.5313 17.0719L15.6656 19.3219C15.7386 19.4753 15.8628 19.5985 16.0167 19.6704C16.1707 19.7422 16.3449 19.7582 16.5094 19.7156C18.8063 19.1531 20.7938 18.1781 22.2375 16.9219C22.3463 16.8258 22.4254 16.7006 22.4653 16.5611C22.5051 16.4215 22.5042 16.2734 22.4625 16.1344L19.2844 5.52187C19.2534 5.41327 19.1975 5.31343 19.1209 5.23039C19.0444 5.14735 18.9495 5.08343 18.8438 5.04375C17.9459 4.67538 17.0173 4.38676 16.0688 4.18125C15.8865 4.14133 15.6959 4.16992 15.5333 4.26157C15.3708 4.35321 15.2477 4.5015 15.1875 4.67812L14.4469 6.91875" stroke="#BEC4CB" stroke-linecap="round" stroke-linejoin="round"/>
<path d="M9.46875 17.0719L8.33438 19.3219C8.26139 19.4753 8.13724 19.5985 7.98327 19.6704C7.8293 19.7422 7.65511 19.7582 7.49063 19.7156C5.19375 19.1531 3.20625 18.1781 1.7625 16.9219C1.65365 16.8258 1.57461 16.7006 1.53473 16.5611C1.49486 16.4215 1.49582 16.2734 1.5375 16.1344L4.71563 5.52187C4.74655 5.41327 4.80253 5.31343 4.87906 5.23039C4.95559 5.14735 5.05053 5.08343 5.15625 5.04375C6.05415 4.67538 6.98273 4.38676 7.93125 4.18125C8.11353 4.14133 8.30412 4.16992 8.46667 4.26157C8.62921 4.35321 8.75232 4.5015 8.8125 4.67812L9.55313 6.91875" stroke="#BEC4CB" stroke-linecap="round" stroke-linejoin="round"/>
</svg>
