<svg width="60" height="29" viewBox="0 0 60 29" fill="none" xmlns="http://www.w3.org/2000/svg">
<path d="M0.0291989 1.11381C0.520253 3.22912 2.48447 6.81759 3.95763 8.40407C5.8463 10.4816 8.33934 11.577 15.2519 13.3902C18.0471 14.1456 20.9934 15.09 21.7867 15.581C23.7886 16.6764 24.9596 18.754 26.055 23.2868C26.8105 26.3086 27.1882 27.1774 28.1326 28.0084C29.568 29.3305 30.4745 29.3305 31.9099 28.0084C32.8543 27.1774 33.232 26.3086 33.9875 23.2868C35.0829 18.754 36.2539 16.6764 38.2558 15.581C39.0491 15.09 41.9954 14.1456 44.7906 13.3902C54.0073 10.9727 56.4248 9.42395 58.729 4.4001C60.2399 1.07604 60.4666 -0.246027 59.069 2.43588C57.3314 5.75994 55.896 7.38419 53.894 8.32853C52.9119 8.81958 51.892 9.4995 51.6276 9.87723C51.3632 10.255 50.7588 10.746 50.3055 11.0104C49.7389 11.3126 49.8523 11.086 50.6833 10.2172C51.401 9.4995 52.1564 8.17743 52.4964 7.08201C53.2896 4.4001 53.1763 3.60686 52.2698 5.64662C51.401 7.57306 49.9656 9.23509 48.4169 10.0283C47.8125 10.3683 45.7727 10.9349 43.8841 11.3504C37.6892 12.7102 35.4984 14.0323 33.7986 17.4697L32.6276 19.8116L32.8543 17.7341C33.0053 16.6009 33.4209 15.09 33.8364 14.41C34.8562 12.6725 34.7429 12.5214 33.4209 13.7679C32.0232 15.09 31.5322 16.752 31.5322 20.1138C31.5322 23.1357 30.9656 23.1735 30.5879 20.1894C30.4745 19.0562 30.2101 18.1118 30.0212 18.1118C29.8324 18.1118 29.568 19.0562 29.4546 20.1894C29.0769 23.1735 28.5103 23.1357 28.5103 20.1138C28.5103 16.752 28.0193 15.09 26.6216 13.7679C25.2996 12.5214 25.1863 12.6725 26.2061 14.41C26.6216 15.09 27.0372 16.6009 27.1882 17.7341L27.4149 19.8116L26.2439 17.4697C24.5441 14.0323 22.3533 12.7102 16.1584 11.3504C14.2698 10.9349 12.23 10.3683 11.6256 10.0283C10.0769 9.23509 8.64153 7.57306 7.77274 5.64662C6.86618 3.60686 6.75286 4.4001 7.5461 7.08201C7.88606 8.17743 8.64153 9.4995 9.35922 10.2172C10.1902 11.086 10.3036 11.3126 9.73695 11.0104C9.28367 10.746 8.6793 10.255 8.41489 9.87723C8.15047 9.4995 7.13059 8.81958 6.14848 8.32853C4.1465 7.38419 2.71111 5.75994 0.973533 2.43588C0.331386 1.18936 -0.121895 0.584987 0.0291989 1.11381Z" fill="#F1F1F3" fill-opacity="0.5"/>
</svg>
