<svg width="30" height="30" viewBox="0 0 30 30" fill="none" xmlns="http://www.w3.org/2000/svg">
<path d="M9.72656 13.125H20.2734L22.9219 6.0586C22.9573 5.9661 23.0212 5.88721 23.1042 5.83324C23.1873 5.77927 23.2853 5.75301 23.3842 5.75822C23.4832 5.76342 23.5779 5.79983 23.6548 5.86222C23.7318 5.92461 23.787 6.00977 23.8125 6.10548L27.0234 18.1172C27.0685 18.3034 27.0569 18.4989 26.9901 18.6785C26.9233 18.858 26.8043 19.0136 26.6484 19.125L15.5391 26.8125C15.3806 26.9219 15.1926 26.9804 15 26.9804C14.8074 26.9804 14.6194 26.9219 14.4609 26.8125L3.35156 19.125C3.1957 19.0136 3.07672 18.858 3.0099 18.6785C2.94307 18.4989 2.93147 18.3034 2.97656 18.1172L6.1875 6.10548C6.21304 6.00977 6.26824 5.92461 6.34518 5.86222C6.42212 5.79983 6.51685 5.76342 6.61577 5.75822C6.71469 5.75301 6.81272 5.77927 6.89578 5.83324C6.97885 5.88721 7.04268 5.9661 7.07813 6.0586L9.72656 13.125Z" stroke="#F0F7FF" stroke-linecap="round" stroke-linejoin="round"/>
<path d="M15.082 26.9766L20.2734 13.125H25.6875" stroke="#F0F7FF" stroke-linecap="round" stroke-linejoin="round"/>
<path d="M4.3125 13.125H9.72656L14.918 26.9766" stroke="#F0F7FF" stroke-linecap="round" stroke-linejoin="round"/>
</svg>
