<svg width="24" height="24" viewBox="0 0 24 24" fill="none" xmlns="http://www.w3.org/2000/svg">
<path opacity="0.5" d="M14 3.81818H10C6.22876 3.81818 4.34315 3.81818 3.17157 5.01638C2 6.21458 2 8.14305 2 12C2 15.8569 2 17.7854 3.17157 18.9836C4.34315 20.1818 6.22876 20.1818 10 20.1818H14C17.7713 20.1818 19.6568 20.1818 20.8285 18.9836C22 17.7854 22 15.8569 22 12C22 8.14305 22 6.21458 20.8285 5.01638C19.6568 3.81818 17.7713 3.81818 14 3.81818Z" fill="#BCBCC5"/>
<path d="M19.1284 8.03302C19.4784 7.74133 19.5257 7.22112 19.234 6.87109C18.9423 6.52106 18.4221 6.47377 18.0721 6.76546L15.6973 8.74444C14.671 9.59966 13.9585 10.1915 13.357 10.5784C12.7747 10.9529 12.3798 11.0786 12.0002 11.0786C11.6206 11.0786 11.2258 10.9529 10.6435 10.5784C10.0419 10.1915 9.32941 9.59966 8.30315 8.74444L5.92837 6.76546C5.57834 6.47377 5.05812 6.52106 4.76643 6.87109C4.47474 7.22112 4.52204 7.74133 4.87206 8.03302L7.28821 10.0465C8.2632 10.859 9.05344 11.5176 9.75091 11.9661C10.4775 12.4334 11.185 12.7286 12.0002 12.7286C12.8154 12.7286 13.523 12.4334 14.2495 11.9661C14.947 11.5176 15.7372 10.859 16.7122 10.0465L19.1284 8.03302Z" fill="#BCBCC5"/>
<rect x="19" y="3" width="4" height="4" rx="2" fill="#BCBCC5"/>
</svg>
