<svg width="24" height="24" viewBox="0 0 24 24" fill="none" xmlns="http://www.w3.org/2000/svg">
<path opacity="0.5" d="M18.7491 9V9.7041C18.7491 10.5491 18.9903 11.3752 19.4422 12.0782L20.5496 13.8012C21.5612 15.3749 20.789 17.5139 19.0296 18.0116C14.4273 19.3134 9.57274 19.3134 4.97036 18.0116C3.21105 17.5139 2.43882 15.3749 3.45036 13.8012L4.5578 12.0782C5.00972 11.3752 5.25087 10.5491 5.25087 9.7041V9C5.25087 5.13401 8.27256 2 12 2C15.7274 2 18.7491 5.13401 18.7491 9Z" fill="#E0D9DD"/>
<path d="M7 19C7.65094 21.0052 9.53451 22.4548 11.7566 22.4548C13.9788 22.4548 15.8623 21.0052 16.5133 19C13.3678 19.5903 10.1454 19.5903 7 19Z" fill="#E0D9DD"/>
</svg>
