<svg width="24" height="24" viewBox="0 0 24 24" fill="none" xmlns="http://www.w3.org/2000/svg">
<path opacity="0.5" d="M12 22C22 22 22 22 22 12C22 2 22 2 12 2C2 2 2 2 2 12C2 22 2 22 12 22Z" fill="#BCBCC5"/>
<path d="M7.37757 12.5556L6.8161 13.0528C6.95138 13.2056 7.14307 13.2966 7.34696 13.3049C7.55085 13.3133 7.74933 13.2382 7.89663 13.0969L7.37757 12.5556ZM9.51906 11.5414C9.81806 11.2547 9.82805 10.7799 9.54138 10.4809C9.25471 10.182 8.77995 10.172 8.48096 10.4586L9.51906 11.5414ZM6.56149 10.5028C6.28687 10.1927 5.81287 10.1639 5.50278 10.4385C5.19268 10.7131 5.16392 11.1871 5.43853 11.4972L6.56149 10.5028ZM14.9317 9.0093C15.213 9.31337 15.6875 9.33184 15.9915 9.05055C16.2956 8.76927 16.3141 8.29476 16.0328 7.9907L14.9317 9.0093ZM12.0437 6.25C9.05803 6.25 6.62757 8.653 6.62757 11.6296H8.12757C8.12757 9.49251 9.87532 7.75 12.0437 7.75V6.25ZM6.62757 11.6296V12.5556H8.12757V11.6296H6.62757ZM7.89663 13.0969L9.51906 11.5414L8.48096 10.4586L6.85852 12.0142L7.89663 13.0969ZM7.93905 12.0583L6.56149 10.5028L5.43853 11.4972L6.8161 13.0528L7.93905 12.0583ZM16.0328 7.9907C15.0431 6.9209 13.6212 6.25 12.0437 6.25V7.75C13.1879 7.75 14.2154 8.23504 14.9317 9.0093L16.0328 7.9907Z" fill="#BCBCC5"/>
<path d="M16.6188 11.4443L17.1795 10.9462C17.044 10.7937 16.8523 10.703 16.6485 10.6949C16.4447 10.6868 16.2464 10.7621 16.0993 10.9034L16.6188 11.4443ZM14.4805 12.4581C14.1817 12.745 14.1722 13.2198 14.4591 13.5185C14.746 13.8173 15.2208 13.8269 15.5195 13.54L14.4805 12.4581ZM17.4393 13.4972C17.7144 13.8068 18.1885 13.8348 18.4981 13.5597C18.8078 13.2846 18.8358 12.8106 18.5607 12.5009L17.4393 13.4972ZM9.04688 15.0047C8.76342 14.7027 8.28879 14.6876 7.98675 14.9711C7.68472 15.2545 7.66966 15.7292 7.95312 16.0312L9.04688 15.0047ZM11.9348 17.7499C14.9276 17.7499 17.3688 15.3496 17.3688 12.3703H15.8688C15.8688 14.5047 14.1158 16.2499 11.9348 16.2499V17.7499ZM17.3688 12.3703V11.4443H15.8688V12.3703H17.3688ZM16.0993 10.9034L14.4805 12.4581L15.5195 13.54L17.1383 11.9853L16.0993 10.9034ZM16.0581 11.9425L17.4393 13.4972L18.5607 12.5009L17.1795 10.9462L16.0581 11.9425ZM7.95312 16.0312C8.94543 17.0885 10.3635 17.7499 11.9348 17.7499V16.2499C10.792 16.2499 9.76546 15.7704 9.04688 15.0047L7.95312 16.0312Z" fill="#BCBCC5"/>
</svg>
