<svg width="24" height="24" viewBox="0 0 24 24" fill="none" xmlns="http://www.w3.org/2000/svg">
<path d="M12.4125 17.8781L17.1375 20.8781C17.7469 21.2625 18.4969 20.6906 18.3188 19.9875L16.95 14.6062C16.913 14.4571 16.9189 14.3005 16.967 14.1545C17.0151 14.0086 17.1034 13.8792 17.2219 13.7812L21.4594 10.2469C22.0125 9.78749 21.7313 8.85937 21.0094 8.81249L15.4781 8.45624C15.3272 8.44746 15.1821 8.39491 15.0606 8.305C14.939 8.2151 14.8463 8.09174 14.7938 7.94999L12.7313 2.75624C12.6767 2.60615 12.5772 2.4765 12.4464 2.38488C12.3156 2.29326 12.1597 2.24411 12 2.24411C11.8403 2.24411 11.6844 2.29326 11.5536 2.38488C11.4228 2.4765 11.3233 2.60615 11.2688 2.75624L9.20625 7.94999C9.15369 8.09174 9.06097 8.2151 8.93943 8.305C8.8179 8.39491 8.6728 8.44746 8.52188 8.45624L2.99063 8.81249C2.26875 8.85937 1.9875 9.78749 2.54063 10.2469L6.77813 13.7812C6.89657 13.8792 6.98493 14.0086 7.03303 14.1545C7.08113 14.3005 7.08701 14.4571 7.05 14.6062L5.78438 19.5937C5.56875 20.4375 6.46875 21.1219 7.19063 20.6625L11.5875 17.8781C11.7108 17.7997 11.8539 17.7581 12 17.7581C12.1461 17.7581 12.2892 17.7997 12.4125 17.8781Z" stroke="#BEC4CB" stroke-width="1.125" stroke-linecap="round" stroke-linejoin="round"/>
</svg>
