<svg width="24" height="24" viewBox="0 0 24 24" fill="none" xmlns="http://www.w3.org/2000/svg">
<rect opacity="0.5" x="2" y="2" width="20" height="20" rx="4" fill="#BCBCC5"/>
<path d="M9.15923 12.7902L15.4321 5.53043C15.575 5.36506 15.7828 5.27 16.0013 5.27H17.7477C18.1632 5.27 18.5 5.6068 18.5 6.02226V7.76999C18.5 7.98778 18.4056 8.19489 18.2412 8.33776L11.0078 14.6248L11.5065 15.1235C11.7876 15.4046 11.7867 15.8607 11.5046 16.1407C11.2239 16.4193 10.7708 16.4184 10.4912 16.1388L9.98548 15.6331L9.70539 15.353L7.87085 17.1875L7.89886 17.2155C8.17729 17.494 8.17729 17.9454 7.89886 18.2238C7.62042 18.5023 7.16899 18.5023 6.89056 18.2238L6.86255 18.1958L5.56017 16.8934L5.50726 16.8405C5.22762 16.5609 5.22902 16.1071 5.51038 15.8292C5.78931 15.5536 6.23834 15.555 6.51556 15.8322L6.56846 15.8851L8.40301 14.0506L8.15093 13.7985L7.64678 13.2944C7.36835 13.0159 7.36835 12.5645 7.64678 12.2861C7.92522 12.0076 8.37665 12.0076 8.65508 12.2861L9.15923 12.7902Z" fill="#BCBCC5"/>
<path d="M14.8408 12.7902L8.56787 5.53043C8.42498 5.36506 8.21722 5.27 7.99866 5.27H6.25226C5.8368 5.27 5.5 5.6068 5.5 6.02226V7.76999C5.5 7.98778 5.59439 8.19489 5.75877 8.33776L12.9922 14.6248L12.4935 15.1235C12.2124 15.4046 12.2133 15.8607 12.4954 16.1407C12.7761 16.4193 13.2292 16.4184 13.5088 16.1388L14.0145 15.6331L14.2946 15.353L16.1291 17.1875L16.1011 17.2155C15.8227 17.494 15.8227 17.9454 16.1011 18.2238C16.3796 18.5023 16.831 18.5023 17.1094 18.2238L17.1374 18.1958L18.4398 16.8934L18.4927 16.8405C18.7724 16.5609 18.771 16.1071 18.4896 15.8292C18.2107 15.5536 17.7617 15.555 17.4844 15.8322L17.4315 15.8851L15.597 14.0506L15.8491 13.7985L16.3532 13.2944C16.6316 13.0159 16.6316 12.5645 16.3532 12.2861C16.0748 12.0076 15.6234 12.0076 15.3449 12.2861L14.8408 12.7902Z" fill="#BCBCC5"/>
</svg>
