<svg width="24" height="24" viewBox="0 0 24 24" fill="none" xmlns="http://www.w3.org/2000/svg">
<path opacity="0.5" fill-rule="evenodd" clip-rule="evenodd" d="M11 6C11.6919 6 12.0378 6 12.3107 6.10657C12.6745 6.24866 12.9636 6.52121 13.1143 6.86424C13.1831 7.02083 13.21 7.20294 13.2205 7.46856C13.2361 7.85896 13.4484 8.22034 13.8073 8.41567C14.1661 8.61101 14.6043 8.60371 14.9706 8.42116C15.2198 8.29695 15.4006 8.22788 15.5788 8.20576C15.9692 8.15729 16.3641 8.25705 16.6765 8.48309C16.9109 8.65256 17.0838 8.93491 17.4295 9.4995L17.4298 9.5C17.7758 10.0649 17.9487 10.3474 17.9873 10.6235C18.0387 10.9916 17.9329 11.3639 17.6932 11.6584C17.5837 11.793 17.4299 11.906 17.1911 12.0474C16.8403 12.2553 16.6145 12.6093 16.6145 12.9999C16.6145 13.3906 16.8403 13.7447 17.1911 13.9526C17.4298 14.094 17.5836 14.207 17.6931 14.3415C17.9328 14.636 18.0386 15.0084 17.9872 15.3765C17.9486 15.6526 17.7757 15.935 17.4297 16.4999L17.4296 16.5001C17.0838 17.065 16.9108 17.3474 16.6765 17.5169C16.364 17.7429 15.9692 17.8427 15.5787 17.7942C15.4005 17.772 15.2198 17.703 14.9705 17.5788C14.6042 17.3963 14.1661 17.3889 13.8072 17.5843C13.4484 17.7797 13.2361 18.141 13.2206 18.5314C13.2101 18.7971 13.1831 18.9792 13.1143 19.1358C12.9636 19.4788 12.6745 19.7514 12.3107 19.8935C12.0378 20 11.6919 20 11 20C10.3081 20 9.96215 20 9.6893 19.8935C9.32545 19.7514 9.03638 19.4788 8.88567 19.1358C8.81687 18.9792 8.78995 18.797 8.77941 18.5315C8.76392 18.141 8.55157 17.7797 8.19271 17.5843C7.83386 17.389 7.39575 17.3963 7.0294 17.5788C6.78014 17.703 6.59941 17.7721 6.42118 17.7942C6.03073 17.8427 5.63585 17.7429 5.32341 17.5169C5.08915 17.3475 4.91621 17.0651 4.57047 16.5005L4.57017 16.5C4.22423 15.9351 4.05126 15.6526 4.01271 15.3765C3.96131 15.0084 4.06711 14.6361 4.30686 14.3415C4.41629 14.2071 4.57011 14.094 4.80883 13.9526C5.15968 13.7447 5.38545 13.3907 5.38547 13C5.3855 12.6093 5.15972 12.2552 4.80883 12.0473C4.57014 11.9059 4.41636 11.7929 4.30693 11.6584C4.06718 11.3639 3.96137 10.9916 4.01278 10.6234C4.05133 10.3473 4.2243 10.0649 4.57023 9.49996L4.57024 9.49995C4.91618 8.93503 5.08915 8.65257 5.32348 8.48304C5.63592 8.257 6.0308 8.15725 6.42125 8.20571C6.59949 8.22783 6.78023 8.29691 7.02951 8.42113C7.39583 8.60368 7.83392 8.61097 8.19275 8.41565C8.55159 8.22032 8.76393 7.85898 8.77941 7.46859C8.78995 7.20295 8.81687 7.02084 8.88567 6.86424C9.03638 6.52121 9.32545 6.24866 9.6893 6.10657C9.96215 6 10.3081 6 11 6ZM10.9998 15.1C12.23 15.1 13.2271 14.1598 13.2271 13C13.2271 11.8402 12.23 10.9 10.9998 10.9C9.76967 10.9 8.77246 11.8402 8.77246 13C8.77246 14.1598 9.76967 15.1 10.9998 15.1Z" fill="#BCBCC5"/>
<path fill-rule="evenodd" clip-rule="evenodd" d="M16 4C16.3954 4 16.593 4 16.749 4.0609C16.9569 4.14209 17.1221 4.29783 17.2082 4.49385C17.2475 4.58333 17.2629 4.68739 17.2689 4.83918C17.2778 5.06226 17.3991 5.26876 17.6042 5.38038C17.8092 5.49201 18.0596 5.48784 18.2689 5.38352C18.4113 5.31254 18.5146 5.27308 18.6165 5.26044C18.8396 5.23274 19.0652 5.28974 19.2437 5.41891C19.3776 5.51575 19.4764 5.67709 19.674 5.99971L19.6742 6C19.8719 6.32281 19.9707 6.48422 19.9927 6.64199C20.0221 6.85235 19.9616 7.06509 19.8247 7.2334C19.7621 7.31028 19.6742 7.37484 19.5378 7.45568C19.3373 7.57444 19.2083 7.77672 19.2083 7.99996C19.2083 8.2232 19.3373 8.42556 19.5378 8.54432C19.6742 8.62512 19.7621 8.68972 19.8246 8.76656C19.9616 8.93488 20.0221 9.14764 19.9927 9.358C19.9706 9.51576 19.8718 9.67716 19.6741 9.99996L19.6741 10.0001C19.4764 10.3228 19.3776 10.4842 19.2437 10.5811C19.0652 10.7102 18.8395 10.7672 18.6164 10.7395C18.5146 10.7269 18.4113 10.6874 18.2689 10.6165C18.0595 10.5122 17.8092 10.508 17.6041 10.6196C17.3991 10.7312 17.2778 10.9377 17.2689 11.1608C17.2629 11.3126 17.2475 11.4167 17.2082 11.5062C17.1221 11.7022 16.9569 11.8579 16.749 11.9391C16.593 12 16.3954 12 16 12C15.6046 12 15.4069 12 15.251 11.9391C15.0431 11.8579 14.8779 11.7022 14.7918 11.5062C14.7525 11.4167 14.7371 11.3126 14.7311 11.1608C14.7222 10.9377 14.6009 10.7312 14.3958 10.6196C14.1908 10.508 13.9404 10.5122 13.7311 10.6165C13.5886 10.6874 13.4854 10.7269 13.3835 10.7396C13.1604 10.7672 12.9348 10.7102 12.7562 10.5811C12.6224 10.4843 12.5235 10.3229 12.326 10.0003L12.3258 10C12.1281 9.6772 12.0293 9.51576 12.0073 9.358C11.9779 9.14764 12.0383 8.93492 12.1753 8.7666C12.2379 8.68976 12.3258 8.62516 12.4622 8.54432C12.6627 8.42556 12.7917 8.22324 12.7917 8C12.7917 7.77676 12.6627 7.5744 12.4622 7.4556C12.3258 7.3748 12.2379 7.31024 12.1754 7.2334C12.0384 7.06506 11.9779 6.85232 12.0073 6.64196C12.0293 6.48419 12.1282 6.32279 12.3258 5.99998L12.3259 5.99997C12.5235 5.67716 12.6224 5.51575 12.7563 5.41888C12.9348 5.28972 13.1605 5.23271 13.3836 5.26041C13.4854 5.27305 13.5887 5.31252 13.7312 5.3835C13.9405 5.48782 14.1908 5.49198 14.3959 5.38037C14.6009 5.26876 14.7222 5.06227 14.7311 4.8392C14.7371 4.6874 14.7525 4.58334 14.7918 4.49385C14.8779 4.29783 15.0431 4.14209 15.251 4.0609C15.4069 4 15.6046 4 16 4ZM16 9.20001C16.7029 9.20001 17.2727 8.66277 17.2727 8.00001C17.2727 7.33725 16.7029 6.80001 16 6.80001C15.297 6.80001 14.7272 7.33725 14.7272 8.00001C14.7272 8.66277 15.297 9.20001 16 9.20001Z" fill="#BCBCC5"/>
<rect opacity="0.5" x="2" y="2" width="20" height="20" rx="4" fill="#BCBCC5"/>
</svg>
