<svg width="24" height="24" viewBox="0 0 24 24" fill="none" xmlns="http://www.w3.org/2000/svg">
<path d="M8.25001 12.6469L16.6781 20.0625C16.7755 20.1487 16.8937 20.2081 17.021 20.2349C17.1483 20.2617 17.2804 20.2548 17.4042 20.2151C17.5281 20.1754 17.6395 20.1042 17.7276 20.0084C17.8156 19.9126 17.8772 19.7955 17.9063 19.6687L21.4313 4.275C21.4608 4.14243 21.4538 4.00432 21.411 3.87541C21.3682 3.74651 21.2912 3.63165 21.1882 3.54309C21.0852 3.45454 20.9601 3.39562 20.8262 3.37262C20.6924 3.34962 20.5548 3.3634 20.4281 3.4125L3.12188 10.2094C2.42813 10.4812 2.52188 11.4937 3.25313 11.6437L8.25001 12.6469Z" stroke="#BEC4CB" stroke-linecap="round" stroke-linejoin="round"/>
<path d="M8.25 12.6469L21.0094 3.43124" stroke="#BEC4CB" stroke-linecap="round" stroke-linejoin="round"/>
<path d="M12.4594 16.35L9.53437 19.275C9.43002 19.381 9.29653 19.4535 9.15085 19.4834C9.00517 19.5133 8.85388 19.4993 8.71622 19.443C8.57856 19.3867 8.46073 19.2908 8.37772 19.1674C8.2947 19.044 8.25025 18.8987 8.25 18.75V12.6469" stroke="#BEC4CB" stroke-linecap="round" stroke-linejoin="round"/>
</svg>
